<?xml version="1.0" encoding="utf-8"?>
<!-- Generator: Adobe Illustrator 19.1.0, SVG Export Plug-In . SVG Version: 6.00 Build 0)  -->
<svg version="1.1" id="Layer_1" xmlns="http://www.w3.org/2000/svg" xmlns:xlink="http://www.w3.org/1999/xlink" x="0px" y="0px"
	 viewBox="0 0 482.5 115.9" style="enable-background:new 0 0 482.5 115.9;" xml:space="preserve">
<style type="text/css">
	.st0{fill:#231F20;}
</style>
<g>
	<path class="st0" d="M147.9,99.1V69.3h10.8c5.9,0,9.6,3.8,9.6,9.8c0,3.8-1.5,6.7-4.1,8.3l5.1,11.7h-6.6l-4.2-10.2h-4.6v10.2H147.9z
		 M162.5,79.1c0-2.7-1.7-4.3-4.7-4.3h-3.9v8.5h3.9C160.7,83.3,162.5,81.8,162.5,79.1z"/>
	<path class="st0" d="M187,92H178l-2.1,7.1h-6.5l9.6-29.8h6.8l9.6,29.8H189L187,92z M179.4,87.2h6.1l-0.9-3.2
		c-0.8-2.9-1.8-6.4-2.2-8.3c-0.4,2.3-1.3,5.4-2.1,8.3L179.4,87.2z"/>
	<path class="st0" d="M233.8,99.1h-6.5l-1.9-16.8c-0.3-2.3-0.3-4.6-0.3-4.9c-0.1,0.4-0.5,2.6-1.1,4.7l-5.5,17h-5.3l-5.5-16.9
		c-0.6-2.1-1-4.3-1.1-4.8c0,0.3,0,2.6-0.3,4.9l-1.9,16.8H198l4.1-29.8h7.5l5.7,17.9c0.3,1.1,0.6,2.6,0.6,2.9c0-0.2,0.3-1.7,0.6-2.8
		l5.7-17.9h7.5L233.8,99.1z"/>
	<path class="st0" d="M239.3,99.1V69.3h18.1v5.4h-12.1v6h8.5V86h-8.5v7.7h12.1v5.4H239.3z"/>
	<path class="st0" d="M284.4,99.1h-5.7v-6.5L270.3,81c-0.7-0.9-1.4-2.2-1.4-2.2s0.1,1.4,0.1,2.6v17.7h-5.6V69.3h5.6l8.6,12.4
		c0.5,0.8,1,1.7,1.1,2c0-0.1-0.1-1.3-0.1-2.3v-12h5.7V99.1z"/>
	<path class="st0" d="M305.1,99.4c-8.5,0-15.1-6.8-15.1-15.3c0-8.4,6.7-15.3,15.1-15.3c4.8,0,8.5,1.9,11.4,5.3l-4.5,3.9
		c-1.7-2-4.2-3.4-6.9-3.4c-5.1,0-9,4.1-9,9.4c0,5.4,4.1,9.5,9,9.5c2.2,0,4.6-0.6,6.1-2.2v-3.7h-6v-5.1h11.6v11.2
		C313.9,97.3,310.2,99.4,305.1,99.4z"/>
	<path class="st0" d="M337.6,92h-8.9l-2.1,7.1h-6.5l9.6-29.8h6.8l9.6,29.8h-6.5L337.6,92z M330.1,87.2h6.1l-0.9-3.2
		c-0.8-2.9-1.8-6.4-2.2-8.3c-0.4,2.3-1.3,5.4-2.1,8.3L330.1,87.2z"/>
	<path class="st0" d="M349.1,99.1V69.3h6v24.2h10.5v5.5H349.1z"/>
	<path class="st0" d="M369.9,99.1V69.3H388v5.4H376v6h8.5V86H376v7.7H388v5.4H369.9z"/>
	<path class="st0" d="M415,99.1h-5.7v-6.5L400.8,81c-0.7-0.9-1.4-2.2-1.4-2.2s0.1,1.4,0.1,2.6v17.7H394V69.3h5.6l8.6,12.4
		c0.5,0.8,1,1.7,1.1,2c0-0.1-0.1-1.3-0.1-2.3v-12h5.7V99.1z"/>
	<path class="st0" d="M440.6,93.7l4.9-3.5c1.2,2.3,3.1,3.6,5.2,3.6c2,0,3.3-1.3,3.3-3.1c0-4.4-11.5-6.1-11.5-14.2
		c0-4.5,3.8-7.7,8-7.7c3.4,0,5.8,1.5,7.4,4l-4.1,3.6c-0.8-1.1-1.8-2-3.1-2s-2.2,0.9-2.2,2.2c0,3.7,11.4,5.7,11.4,14
		c0,5.1-3.9,8.8-9.4,8.8C446.5,99.4,442.6,97.7,440.6,93.7z"/>
	<path class="st0" d="M464.4,99.1V69.3h18.1v5.4h-12.1v6h8.5V86h-8.5v7.7h12.1v5.4H464.4z"/>
	<g>
		<path class="st0" d="M429.9,91.6c2.1,0,3.9,1.8,3.9,3.9c0,2.1-1.8,3.9-3.9,3.9c-2.1,0-3.9-1.8-3.9-3.9
			C425.9,93.4,427.7,91.6,429.9,91.6z M427.1,88.6l-0.2-24.7h5.9l-0.2,24.7H427.1z"/>
	</g>
</g>
<g>
	<path class="st0" d="M148.4,27.3c1.7,0.2,3,0.3,6.2,0.3h19.3c1.8,0,2.1,0,3.1-0.4l3,3.2c-0.5,0.7-0.5,0.8-1.1,2.4
		c-2,5.7-4.8,10.1-8.6,13.2c-2.9,2.5-5.7,4-11,6c-1-2.3-2.1-3.9-4.3-6.3c4.6-1.2,7.4-2.4,10.2-4.5c2.8-2.1,4.5-4.3,5.9-7.7h-16.7
		c-3,0-3.7,0-6.1,0.2V27.3z M151.6,17.6c1.5,0.2,2.9,0.3,5.7,0.3h12.3c3,0,4.7-0.1,6-0.3v6.5c-1.5-0.1-3.3-0.2-5.9-0.2h-12.5
		c-3,0-3.9,0-5.6,0.2V17.6z"/>
	<path class="st0" d="M183.7,30.4c1.8,0.3,3.9,0.3,7.9,0.3H210c3.9,0,5.3-0.1,7.9-0.3v7.4c-1.8-0.2-3.5-0.2-7.9-0.2h-18.3
		c-4.3,0-5.6,0-7.9,0.2V30.4z"/>
	<path class="st0" d="M249.7,19.6c-0.5,1-0.8,1.7-1.6,3.6c-1.6,3.8-3.1,6.9-5.1,10.2c3.4,2.8,4.5,4,8.4,8.1l-5.2,5.5
		c-2.1-2.8-4.3-5.2-7.3-7.9c-3.7,4.7-8.4,8.6-14.9,12.2c-1.3-2.3-2.5-3.7-4.9-5.8c4.8-2.3,7.4-4,10.4-6.7c1.6-1.4,2.9-2.8,4.1-4.3
		c-4.8-3.6-6.9-5.1-10-6.9l4.7-4.7c3.5,2,5.2,3.2,9.1,6c2.2-3.6,4.4-8.8,5-11.8L249.7,19.6z"/>
	<path class="st0" d="M260.2,19c4.9,2.9,7.4,4.6,10.6,7.5l-4.5,6c-3.4-3.5-6.6-6-10.5-8.1L260.2,19z M256.1,42.9
		c3.9-0.3,8-1.3,11.6-2.8c4.9-2,8.3-4.9,11.3-9.5c1.6-2.5,2.7-4.6,3.8-7.5c1.9,2.3,2.8,3,5.7,5.2c-3.5,7.6-7.2,12.1-12.6,15.6
		c-4.2,2.7-7.8,4.1-15,5.8c-1.5,0.3-1.7,0.4-2.8,0.7L256.1,42.9z"/>
</g>
<g>
	<path d="M58.5,73.6C26.2,73.6,0,57.1,0,36.8C0,16.5,26.2,0,58.5,0s58.5,16.5,58.5,36.8C116.9,57.1,90.7,73.6,58.5,73.6z M58.5,4.3
		C28.6,4.3,4.3,18.8,4.3,36.8c0,17.9,24.3,32.5,54.2,32.5s54.2-14.6,54.2-32.5C112.7,18.8,88.3,4.3,58.5,4.3z"/>
	<path d="M59.7,104.6c-0.4,0-0.9,0-1.3,0c-18.8-0.3-34.1-7.3-44.3-20.3C4.9,72.5,0,56.1,0,36.8h4.3c0,39.2,20.3,63,54.2,63.5
		c15,0.3,27.3-4.2,36.6-13.4c11.3-11.1,17.5-28.9,17.5-50.2h4.3c0,22.4-6.7,41.3-18.8,53.2C88.3,99.7,75.3,104.6,59.7,104.6z"/>
	<path d="M58.8,115.9c-10.8,0-29.1-1.9-29.1-9.1V96.6h4.3v10.2c0.5,1.3,8.6,4.9,24.9,4.9s24.4-3.5,24.9-4.9l0-10.1h4.3v10.2
		C87.9,114,69.6,115.9,58.8,115.9z"/>
	<path d="M84.5,44.2c-4,0-6.1-1.5-7.8-2.6c-1.5-1.1-2.8-1.9-5.4-1.9c-2.7,0-3.9,0.8-5.4,1.9c-1.7,1.2-3.9,2.6-7.8,2.6
		c-4,0-6.1-1.5-7.8-2.6c-1.5-1.1-2.8-1.9-5.4-1.9c-2.7,0-3.9,0.8-5.4,1.9c-1.7,1.2-3.9,2.6-7.8,2.6c-4,0-6.1-1.5-7.8-2.6
		c-1.5-1.1-2.8-1.9-5.4-1.9c-1.2,0-2.1-1-2.1-2.1s1-2.1,2.1-2.1c4,0,6.1,1.5,7.8,2.6c1.5,1.1,2.8,1.9,5.4,1.9c2.7,0,3.9-0.8,5.4-1.9
		c1.7-1.2,3.9-2.6,7.8-2.6c4,0,6.1,1.5,7.8,2.6c1.5,1.1,2.8,1.9,5.4,1.9c2.7,0,3.9-0.8,5.4-1.9c1.7-1.2,3.9-2.6,7.8-2.6
		c4,0,6.1,1.5,7.8,2.6c1.5,1.1,2.8,1.9,5.4,1.9s3.9-0.8,5.4-1.9c1.7-1.2,3.9-2.6,7.8-2.6c1.2,0,2.1,1,2.1,2.1s-1,2.1-2.1,2.1
		c-2.7,0-3.9,0.8-5.4,1.9C90.6,42.7,88.5,44.2,84.5,44.2z"/>
	<path d="M81.8,58.2c-3.7,0-5.6-1.5-7.2-2.7c-1.4-1.1-2.4-1.8-4.6-1.8c-2.2,0-3.2,0.8-4.6,1.8c-1.6,1.2-3.5,2.7-7.2,2.7
		c-3.7,0-5.6-1.5-7.2-2.7c-1.4-1.1-2.4-1.8-4.6-1.8c-2.2,0-3.2,0.8-4.6,1.8c-1.6,1.2-3.5,2.7-7.2,2.7s-5.6-1.5-7.2-2.7
		c-1.4-1.1-2.4-1.8-4.6-1.8c-1.2,0-2.1-1-2.1-2.1s1-2.1,2.1-2.1c3.7,0,5.6,1.5,7.2,2.7c1.4,1.1,2.4,1.8,4.6,1.8
		c2.2,0,3.2-0.8,4.6-1.8c1.6-1.2,3.5-2.7,7.2-2.7c3.7,0,5.6,1.5,7.2,2.7c1.4,1.1,2.4,1.8,4.6,1.8c2.2,0,3.2-0.8,4.6-1.8
		c1.6-1.2,3.5-2.7,7.2-2.7c3.7,0,5.6,1.5,7.2,2.7c1.4,1.1,2.4,1.8,4.6,1.8s3.3-0.8,4.6-1.8c1.6-1.2,3.5-2.7,7.2-2.7
		c1.2,0,2.1,1,2.1,2.1s-1,2.1-2.1,2.1c-2.2,0-3.3,0.8-4.6,1.8C87.4,56.7,85.4,58.2,81.8,58.2z"/>
</g>
</svg>
