<svg xmlns="http://www.w3.org/2000/svg" viewBox="0 0 79.5 6.8"><path d="M66.2 6.8c-3.7 0-5.6-1.3-7.3-2.5-1.6-1.1-3-2.1-6-2.1s-4.4 1-6 2.1c-1.7 1.2-3.6 2.5-7.3 2.5-3.7 0-5.6-1.3-7.3-2.5-1.6-1.1-3-2.1-6-2.1s-4.4 1-6 2.1c-1.7 1.2-3.6 2.5-7.3 2.5-3.4 0-5.3-1.3-7-2.5-1.6-1.1-3-2-6-2V0c3.7 0 5.6 1.3 7.3 2.5 1.6 1.1 3 2.1 6 2.1s4.4-1 6-2.1C20.9 1.3 22.8 0 26.5 0s5.6 1.3 7.3 2.5c1.6 1.1 3 2.1 6 2.1s4.4-1 6-2.1C47.4 1.3 49.3 0 53 0s5.6 1.3 7.3 2.5c1.6 1.1 3 2.1 6 2.1s4.4-1 6-2.1C73.9 1.3 75.8 0 79.5 0v2.3c-3 0-4.4 1-6 2.1-1.7 1.1-3.6 2.4-7.3 2.4z"/></svg>