<svg xmlns="http://www.w3.org/2000/svg" viewBox="0 0 116.9 115.9"><path d="M58.5 73.6C26.2 73.6 0 57.1 0 36.8S26.2 0 58.5 0 117 16.5 117 36.8 90.7 73.6 58.5 73.6zm0-69.3C28.6 4.3 4.3 18.8 4.3 36.8s24.3 32.5 54.2 32.5 54.2-14.6 54.2-32.5S88.3 4.3 58.5 4.3z"/><path d="M59.7 104.6h-1.3c-18.8-.3-34.1-7.3-44.3-20.3C4.9 72.5 0 56.1 0 36.8h4.3c0 39.2 20.3 63 54.2 63.5 15 .3 27.3-4.2 36.6-13.4 11.3-11.1 17.5-28.9 17.5-50.2h4.3c0 22.4-6.7 41.3-18.8 53.2-9.8 9.8-22.8 14.7-38.4 14.7z"/><path d="M58.8 115.9c-10.8 0-29.1-1.9-29.1-9.1V96.6H34v10.2c.5 1.3 8.6 4.9 24.9 4.9s24.4-3.5 24.9-4.9V96.7h4.3v10.2c-.2 7.1-18.5 9-29.3 9zM84.5 44.2c-4 0-6.1-1.5-7.8-2.6-1.5-1.1-2.8-1.9-5.4-1.9-2.7 0-3.9.8-5.4 1.9-1.7 1.2-3.9 2.6-7.8 2.6-4 0-6.1-1.5-7.8-2.6-1.5-1.1-2.8-1.9-5.4-1.9-2.7 0-3.9.8-5.4 1.9-1.7 1.2-3.9 2.6-7.8 2.6-4 0-6.1-1.5-7.8-2.6-1.5-1.1-2.8-1.9-5.4-1.9-1.2 0-2.1-1-2.1-2.1s1-2.1 2.1-2.1c4 0 6.1 1.5 7.8 2.6 1.5 1.1 2.8 1.9 5.4 1.9 2.7 0 3.9-.8 5.4-1.9 1.7-1.2 3.9-2.6 7.8-2.6 4 0 6.1 1.5 7.8 2.6 1.5 1.1 2.8 1.9 5.4 1.9 2.7 0 3.9-.8 5.4-1.9 1.7-1.2 3.9-2.6 7.8-2.6 4 0 6.1 1.5 7.8 2.6 1.5 1.1 2.8 1.9 5.4 1.9s3.9-.8 5.4-1.9c1.7-1.2 3.9-2.6 7.8-2.6 1.2 0 2.1 1 2.1 2.1s-1 2.1-2.1 2.1c-2.7 0-3.9.8-5.4 1.9-1.7 1.1-3.8 2.6-7.8 2.6zM81.8 58.2c-3.7 0-5.6-1.5-7.2-2.7-1.4-1.1-2.4-1.8-4.6-1.8-2.2 0-3.2.8-4.6 1.8-1.6 1.2-3.5 2.7-7.2 2.7s-5.6-1.5-7.2-2.7c-1.4-1.1-2.4-1.8-4.6-1.8-2.2 0-3.2.8-4.6 1.8-1.6 1.2-3.5 2.7-7.2 2.7s-5.6-1.5-7.2-2.7c-1.4-1.1-2.4-1.8-4.6-1.8-1.2 0-2.1-1-2.1-2.1s1-2.1 2.1-2.1c3.7 0 5.6 1.5 7.2 2.7 1.4 1.1 2.4 1.8 4.6 1.8 2.2 0 3.2-.8 4.6-1.8 1.6-1.2 3.5-2.7 7.2-2.7s5.6 1.5 7.2 2.7C55 53.3 56 54 58.2 54c2.2 0 3.2-.8 4.6-1.8 1.6-1.2 3.5-2.7 7.2-2.7s5.6 1.5 7.2 2.7c1.4 1.1 2.4 1.8 4.6 1.8 2.2 0 3.3-.8 4.6-1.8 1.6-1.2 3.5-2.7 7.2-2.7 1.2 0 2.1 1 2.1 2.1s-1 2.1-2.1 2.1c-2.2 0-3.3.8-4.6 1.8-1.6 1.2-3.6 2.7-7.2 2.7z"/></svg>